<svg width="31" height="26" viewBox="0 0 31 26" fill="none" xmlns="http://www.w3.org/2000/svg">
<path d="M13.6 0C17.9968 1.92538e-05 21.8831 2.18334 24.2357 5.52441L23.7738 6.21777L14.1654 14.6963L17.5561 18.0869L26.0805 9.35352C26.418 10.5105 26.6 11.734 26.6 13C26.6 20.1798 20.7796 26 13.6 26C6.42034 26 0.600006 20.1798 0.600006 13C0.600075 5.82029 6.42038 0 13.6 0ZM13.3168 22.3262L16.4262 18.9346L9.36075 11.8691H2.57852L13.3168 22.3262ZM13.6 7.34766C12.0393 7.34766 10.7739 8.6131 10.7738 10.1738C10.7738 11.7346 12.0392 13 13.6 13C15.1608 13 16.4262 11.7346 16.4262 10.1738C16.4261 8.61313 15.1607 7.3477 13.6 7.34766Z" fill="#0D6EFD"/>
<path d="M30.8389 4.52173L17.5564 18.0871L22.3607 17.8045L30.8389 4.52173Z" fill="#0D6EFD"/>
</svg>
