<svg width="172" height="36" viewBox="0 0 172 36" fill="none" xmlns="http://www.w3.org/2000/svg">
<path d="M18.0541 0.400024C23.9572 0.400024 29.1746 3.33143 32.3334 7.81702L31.7143 8.74768L18.8129 20.1305L23.3666 24.6842L34.8109 12.9596C35.2638 14.5127 35.5082 16.1548 35.5082 17.8541C35.5082 27.4939 27.6938 35.3082 18.0541 35.3082C8.41446 35.3082 0.600006 27.4938 0.600006 17.8541C0.600099 8.21451 8.41452 0.400081 18.0541 0.400024ZM17.6742 30.3756L21.849 25.8219L12.3627 16.3365H3.25626L17.6742 30.3756ZM18.0541 10.2653C15.9586 10.2653 14.2602 11.9646 14.2602 14.0602C14.2603 16.1556 15.9587 17.8541 18.0541 17.8541C20.1496 17.8541 21.8489 16.1556 21.849 14.0602C21.849 11.9646 20.1497 10.2653 18.0541 10.2653Z" fill="#0D6EFD"/>
<path d="M41.1999 6.47095L23.3663 24.6841L29.8167 24.3047L41.1999 6.47095Z" fill="#0D6EFD"/>
<path d="M49.9303 24.6397C49.0679 24.6397 48.3007 24.5389 47.6287 24.3373C46.9679 24.1245 46.4079 23.8333 45.9487 23.4637C45.4895 23.0829 45.1311 22.6293 44.8735 22.1029C44.6271 21.5765 44.4927 20.9941 44.4703 20.3557H46.8055C46.9735 21.9685 48.0207 22.7749 49.9471 22.7749C50.2831 22.7749 50.6023 22.7413 50.9047 22.6741C51.2071 22.5957 51.4703 22.4837 51.6943 22.3381C51.9295 22.1813 52.1087 21.9909 52.2319 21.7669C52.3663 21.5317 52.4335 21.2573 52.4335 20.9437C52.4335 20.6077 52.3551 20.3333 52.1983 20.1205C52.0527 19.8965 51.8399 19.7117 51.5599 19.5661C51.2799 19.4093 50.9383 19.2805 50.5351 19.1797C50.1431 19.0677 49.7007 18.9557 49.2079 18.8437C48.6255 18.7093 48.0711 18.5637 47.5447 18.4069C47.0295 18.2501 46.5759 18.0373 46.1839 17.7685C45.8031 17.4997 45.4951 17.1637 45.2599 16.7605C45.0359 16.3461 44.9239 15.8253 44.9239 15.1981C44.9239 14.6045 45.0359 14.0893 45.2599 13.6525C45.4951 13.2045 45.8199 12.8349 46.2343 12.5437C46.6487 12.2413 47.1359 12.0173 47.6959 11.8717C48.2559 11.7149 48.8719 11.6365 49.5439 11.6365C51.0111 11.6365 52.1479 11.9669 52.9543 12.6277C53.7719 13.2773 54.2423 14.1789 54.3655 15.3325H52.0975C52.0079 14.7165 51.7391 14.2461 51.2911 13.9213C50.8431 13.5853 50.2495 13.4173 49.5103 13.4173C48.8047 13.4173 48.2391 13.5573 47.8135 13.8373C47.3991 14.1061 47.1919 14.4925 47.1919 14.9965C47.1919 15.2877 47.2647 15.5285 47.4103 15.7189C47.5559 15.9093 47.7631 16.0717 48.0319 16.2061C48.3119 16.3405 48.6423 16.4581 49.0231 16.5589C49.4151 16.6597 49.8519 16.7605 50.3335 16.8613C50.9159 16.9845 51.4703 17.1301 51.9967 17.2981C52.5343 17.4661 53.0103 17.6957 53.4247 17.9869C53.8391 18.2669 54.1695 18.6309 54.4159 19.0789C54.6623 19.5269 54.7855 20.0869 54.7855 20.7589C54.7855 21.3861 54.6623 21.9405 54.4159 22.4221C54.1695 22.9037 53.8279 23.3069 53.3911 23.6317C52.9655 23.9565 52.4559 24.2029 51.8623 24.3709C51.2687 24.5501 50.6247 24.6397 49.9303 24.6397ZM56.6275 11.8549H62.5243C63.1067 11.8549 63.6443 11.9389 64.1371 12.1069C64.6299 12.2637 65.0499 12.4933 65.3971 12.7957C65.7555 13.0981 66.0355 13.4677 66.2371 13.9045C66.4387 14.3301 66.5395 14.8173 66.5395 15.3661C66.5395 16.1165 66.3603 16.7549 66.0019 17.2813C65.6435 17.8077 65.0555 18.1997 64.2379 18.4573V18.5077C64.8987 18.7093 65.3691 19.0173 65.6491 19.4317C65.9403 19.8461 66.1195 20.4397 66.1867 21.2125C66.2875 22.1309 66.3603 22.8421 66.4051 23.3461C66.4611 23.8501 66.5731 24.1469 66.7411 24.2365V24.3541H64.3891C64.2323 24.2533 64.1315 23.9621 64.0867 23.4805C64.0531 22.9989 64.0027 22.3381 63.9355 21.4981C63.8683 20.7589 63.6499 20.2213 63.2803 19.8853C62.9219 19.5493 62.3675 19.3813 61.6171 19.3813H58.9459V24.3541H56.6275V11.8549ZM58.9459 17.6005H61.9699C62.7091 17.6005 63.2635 17.4325 63.6331 17.0965C64.0139 16.7493 64.2043 16.2845 64.2043 15.7021C64.2043 15.0749 64.0307 14.5933 63.6835 14.2573C63.3475 13.9213 62.8043 13.7533 62.0539 13.7533H58.9459V17.6005ZM78.2816 24.6229C77.3744 24.6229 76.5512 24.4605 75.812 24.1357C75.0728 23.8109 74.44 23.3629 73.9136 22.7917C73.3872 22.2093 72.9784 21.5261 72.6872 20.7421C72.4072 19.9469 72.2672 19.0789 72.2672 18.1381C72.2672 17.2085 72.4072 16.3461 72.6872 15.5509C72.9672 14.7557 73.3648 14.0669 73.88 13.4845C74.4064 12.9021 75.0392 12.4485 75.7784 12.1237C76.5288 11.7877 77.3688 11.6197 78.2984 11.6197C79.0152 11.6197 79.6648 11.7093 80.2472 11.8885C80.8296 12.0677 81.3336 12.3197 81.7592 12.6445C82.2632 13.0365 82.6608 13.5069 82.952 14.0557C83.2544 14.6045 83.4448 15.2093 83.5232 15.8701H81.2048C81.0928 15.1981 80.7848 14.6493 80.2808 14.2237C79.7768 13.7981 79.1104 13.5853 78.2816 13.5853C77.688 13.5853 77.1616 13.7029 76.7024 13.9381C76.2544 14.1621 75.8736 14.4813 75.56 14.8957C75.2576 15.2989 75.028 15.7805 74.8712 16.3405C74.7144 16.8893 74.636 17.4885 74.636 18.1381C74.636 18.7989 74.72 19.4093 74.888 19.9693C75.0672 20.5181 75.3136 20.9941 75.6272 21.3973C75.952 21.7893 76.3384 22.0973 76.7864 22.3213C77.2344 22.5453 77.7384 22.6573 78.2984 22.6573C78.7688 22.6573 79.1832 22.5845 79.5416 22.4389C79.9 22.2933 80.2024 22.0973 80.4488 21.8509C80.7064 21.5933 80.908 21.3021 81.0536 20.9773C81.1992 20.6413 81.2888 20.2829 81.3224 19.9021H83.6576C83.6352 20.5293 83.484 21.1397 83.204 21.7333C82.9352 22.3157 82.5824 22.8197 82.1456 23.2453C81.2272 24.1637 79.9392 24.6229 78.2816 24.6229ZM89.4173 24.6229C88.7229 24.6229 88.0901 24.4997 87.5189 24.2533C86.9589 24.0069 86.4773 23.6709 86.0741 23.2453C85.6821 22.8197 85.3741 22.3213 85.1501 21.7501C84.9373 21.1677 84.8309 20.5461 84.8309 19.8853C84.8309 19.2133 84.9373 18.5917 85.1501 18.0205C85.3741 17.4381 85.6821 16.9341 86.0741 16.5085C86.4773 16.0829 86.9589 15.7525 87.5189 15.5173C88.0901 15.2709 88.7229 15.1477 89.4173 15.1477C90.1117 15.1477 90.7389 15.2709 91.2989 15.5173C91.8589 15.7525 92.3349 16.0829 92.7269 16.5085C93.1301 16.9341 93.4381 17.4381 93.6509 18.0205C93.8637 18.5917 93.9701 19.2133 93.9701 19.8853C93.9701 20.5461 93.8637 21.1677 93.6509 21.7501C93.4381 22.3213 93.1301 22.8197 92.7269 23.2453C92.3349 23.6709 91.8589 24.0069 91.2989 24.2533C90.7389 24.4997 90.1117 24.6229 89.4173 24.6229ZM89.4005 23.0101C89.7925 23.0101 90.1341 22.9317 90.4253 22.7749C90.7277 22.6181 90.9797 22.3997 91.1813 22.1197C91.3829 21.8397 91.5341 21.5093 91.6349 21.1285C91.7469 20.7477 91.8029 20.3333 91.8029 19.8853C91.8029 19.4373 91.7469 19.0229 91.6349 18.6421C91.5341 18.2501 91.3829 17.9141 91.1813 17.6341C90.9797 17.3429 90.7277 17.1189 90.4253 16.9621C90.1341 16.8053 89.7925 16.7269 89.4005 16.7269C89.0085 16.7269 88.6613 16.8053 88.3589 16.9621C88.0565 17.1189 87.8045 17.3429 87.6029 17.6341C87.4013 17.9141 87.2501 18.2501 87.1493 18.6421C87.0485 19.0229 86.9981 19.4373 86.9981 19.8853C86.9981 20.3333 87.0485 20.7477 87.1493 21.1285C87.2501 21.5093 87.4013 21.8397 87.6029 22.1197C87.8045 22.3997 88.0565 22.6181 88.3589 22.7749C88.6613 22.9317 89.0085 23.0101 89.4005 23.0101ZM97.5559 16.6933H97.6063C97.8975 16.1893 98.2727 15.8085 98.7319 15.5509C99.2023 15.2821 99.7567 15.1477 100.395 15.1477C101.37 15.1477 102.126 15.4277 102.663 15.9877C103.212 16.5365 103.486 17.2981 103.486 18.2725V24.3541H101.353V18.6253C101.353 18.0877 101.202 17.6677 100.899 17.3653C100.608 17.0629 100.188 16.9117 99.6391 16.9117C99.3367 16.9117 99.0623 16.9677 98.8159 17.0797C98.5695 17.1805 98.3567 17.3317 98.1775 17.5333C97.9983 17.7237 97.8583 17.9533 97.7575 18.2221C97.6567 18.4909 97.6063 18.7821 97.6063 19.0957V24.3541H95.4727V15.3829H97.5559V16.6933ZM108.961 24.6397C107.673 24.6397 106.671 24.3597 105.954 23.7997C105.248 23.2397 104.862 22.5061 104.795 21.5989H106.844C106.934 22.1365 107.169 22.5285 107.55 22.7749C107.931 23.0101 108.407 23.1277 108.978 23.1277C109.571 23.1277 110.008 23.0157 110.288 22.7917C110.568 22.5565 110.708 22.2597 110.708 21.9013C110.708 21.6773 110.652 21.4981 110.54 21.3637C110.428 21.2181 110.271 21.1005 110.07 21.0109C109.868 20.9101 109.622 20.8317 109.331 20.7757C109.051 20.7085 108.737 20.6413 108.39 20.5741C107.964 20.4957 107.555 20.4005 107.163 20.2885C106.771 20.1765 106.424 20.0253 106.122 19.8349C105.819 19.6333 105.573 19.3757 105.383 19.0621C105.203 18.7373 105.114 18.3229 105.114 17.8189C105.114 17.3933 105.198 17.0181 105.366 16.6933C105.545 16.3573 105.786 16.0773 106.088 15.8533C106.402 15.6181 106.777 15.4445 107.214 15.3325C107.651 15.2093 108.132 15.1477 108.659 15.1477C109.857 15.1477 110.759 15.3941 111.363 15.8869C111.979 16.3685 112.343 17.0013 112.455 17.7853H110.423C110.266 16.9901 109.672 16.5925 108.642 16.5925C108.138 16.5925 107.757 16.6933 107.499 16.8949C107.253 17.0965 107.13 17.3541 107.13 17.6677C107.13 17.8693 107.186 18.0317 107.298 18.1549C107.41 18.2781 107.567 18.3845 107.768 18.4741C107.97 18.5525 108.211 18.6197 108.491 18.6757C108.771 18.7317 109.079 18.7933 109.415 18.8605C109.84 18.9389 110.255 19.0341 110.658 19.1461C111.061 19.2469 111.419 19.4037 111.733 19.6165C112.058 19.8181 112.315 20.0925 112.506 20.4397C112.696 20.7757 112.791 21.2181 112.791 21.7669C112.791 22.2373 112.696 22.6517 112.506 23.0101C112.315 23.3685 112.047 23.6709 111.699 23.9173C111.363 24.1525 110.96 24.3317 110.49 24.4549C110.019 24.5781 109.51 24.6397 108.961 24.6397ZM120.07 24.3541V23.0773H120.036C119.712 23.5701 119.336 23.9453 118.911 24.2029C118.496 24.4605 117.97 24.5893 117.332 24.5893C116.346 24.5893 115.579 24.3093 115.03 23.7493C114.492 23.1781 114.224 22.4053 114.224 21.4309V15.3829H116.357V21.1285C116.357 21.6661 116.503 22.0805 116.794 22.3717C117.085 22.6629 117.5 22.8085 118.037 22.8085C118.642 22.8085 119.124 22.6069 119.482 22.2037C119.84 21.7893 120.02 21.2685 120.02 20.6413V15.3829H122.136V24.3541H120.07ZM124.119 11.8549H126.269V24.3541H124.119V11.8549ZM127.698 15.3829H129.076V12.5269H131.176V15.3829H132.974V16.8445H131.176V21.8677C131.176 22.1925 131.26 22.4165 131.428 22.5397C131.596 22.6517 131.831 22.7077 132.134 22.7077C132.246 22.7077 132.363 22.7021 132.486 22.6909C132.621 22.6797 132.733 22.6629 132.822 22.6405H132.923V24.3037C132.744 24.3373 132.537 24.3653 132.302 24.3877C132.066 24.4213 131.803 24.4381 131.512 24.4381C131.154 24.4381 130.823 24.4045 130.521 24.3373C130.218 24.2589 129.961 24.1413 129.748 23.9845C129.535 23.8165 129.367 23.5981 129.244 23.3293C129.132 23.0605 129.076 22.7301 129.076 22.3381V16.8445H127.698V15.3829ZM140.365 24.3541C140.287 24.2533 140.22 24.1133 140.164 23.9341C140.119 23.7437 140.085 23.4973 140.063 23.1949H140.029C139.738 23.5869 139.374 23.9173 138.937 24.1861C138.5 24.4437 137.924 24.5725 137.207 24.5725C136.77 24.5725 136.361 24.5165 135.98 24.4045C135.611 24.2925 135.292 24.1245 135.023 23.9005C134.754 23.6765 134.541 23.4021 134.384 23.0773C134.228 22.7413 134.149 22.3549 134.149 21.9181C134.149 21.4141 134.239 20.9997 134.418 20.6749C134.608 20.3389 134.866 20.0701 135.191 19.8685C135.516 19.6669 135.902 19.5157 136.35 19.4149C136.798 19.3029 137.291 19.2133 137.828 19.1461C138.568 19.0565 139.122 18.9333 139.492 18.7765C139.861 18.6085 140.046 18.3229 140.046 17.9197C140.046 17.5277 139.912 17.2141 139.643 16.9789C139.374 16.7437 138.971 16.6261 138.433 16.6261C137.828 16.6261 137.375 16.7549 137.072 17.0125C136.781 17.2701 136.624 17.6229 136.602 18.0709H134.586C134.597 17.6901 134.681 17.3261 134.838 16.9789C135.006 16.6205 135.247 16.3069 135.56 16.0381C135.885 15.7693 136.283 15.5565 136.753 15.3997C137.224 15.2317 137.778 15.1477 138.416 15.1477C138.932 15.1477 139.385 15.1869 139.777 15.2653C140.18 15.3437 140.528 15.4781 140.819 15.6685C141.67 16.1837 142.096 17.0349 142.096 18.2221V22.9429C142.096 23.3125 142.124 23.5981 142.18 23.7997C142.247 24.0013 142.331 24.1357 142.432 24.2029V24.3541H140.365ZM137.828 23.1109C138.198 23.1109 138.523 23.0549 138.803 22.9429C139.083 22.8197 139.318 22.6685 139.508 22.4893C139.699 22.2989 139.844 22.0861 139.945 21.8509C140.046 21.6045 140.096 21.3525 140.096 21.0949V19.7677C139.884 19.9021 139.62 20.0197 139.307 20.1205C138.993 20.2101 138.674 20.2885 138.349 20.3557C137.688 20.4789 137.179 20.6413 136.82 20.8429C136.462 21.0333 136.283 21.3749 136.283 21.8677C136.283 22.1029 136.322 22.3045 136.4 22.4725C136.49 22.6293 136.602 22.7581 136.736 22.8589C136.882 22.9485 137.05 23.0157 137.24 23.0605C137.431 23.0941 137.627 23.1109 137.828 23.1109ZM146.151 16.6933H146.202C146.493 16.1893 146.868 15.8085 147.327 15.5509C147.798 15.2821 148.352 15.1477 148.99 15.1477C149.965 15.1477 150.721 15.4277 151.258 15.9877C151.807 16.5365 152.082 17.2981 152.082 18.2725V24.3541H149.948V18.6253C149.948 18.0877 149.797 17.6677 149.494 17.3653C149.203 17.0629 148.783 16.9117 148.234 16.9117C147.932 16.9117 147.658 16.9677 147.411 17.0797C147.165 17.1805 146.952 17.3317 146.773 17.5333C146.594 17.7237 146.454 17.9533 146.353 18.2221C146.252 18.4909 146.202 18.7821 146.202 19.0957V24.3541H144.068V15.3829H146.151V16.6933ZM158.06 24.6229C157.366 24.6229 156.739 24.4997 156.179 24.2533C155.619 24.0069 155.137 23.6709 154.734 23.2453C154.342 22.8197 154.039 22.3213 153.827 21.7501C153.614 21.1677 153.507 20.5461 153.507 19.8853C153.507 19.2133 153.614 18.5917 153.827 18.0205C154.039 17.4381 154.342 16.9341 154.734 16.5085C155.126 16.0829 155.596 15.7525 156.145 15.5173C156.705 15.2709 157.332 15.1477 158.027 15.1477C158.598 15.1477 159.113 15.2261 159.572 15.3829C160.043 15.5397 160.446 15.7581 160.782 16.0381C161.129 16.3181 161.409 16.6597 161.622 17.0629C161.846 17.4549 161.997 17.8917 162.075 18.3733H159.992C159.891 17.8805 159.673 17.4941 159.337 17.2141C159.012 16.9229 158.581 16.7773 158.043 16.7773C157.651 16.7773 157.304 16.8557 157.002 17.0125C156.711 17.1581 156.464 17.3709 156.263 17.6509C156.072 17.9309 155.927 18.2613 155.826 18.6421C155.725 19.0229 155.675 19.4373 155.675 19.8853C155.675 20.3221 155.725 20.7309 155.826 21.1117C155.927 21.4813 156.072 21.8061 156.263 22.0861C156.464 22.3549 156.711 22.5677 157.002 22.7245C157.304 22.8813 157.651 22.9597 158.043 22.9597C158.637 22.9597 159.102 22.7973 159.438 22.4725C159.785 22.1477 159.987 21.6885 160.043 21.0949H162.126C162.092 21.6213 161.975 22.1029 161.773 22.5397C161.571 22.9653 161.291 23.3349 160.933 23.6485C160.586 23.9509 160.171 24.1861 159.69 24.3541C159.208 24.5333 158.665 24.6229 158.06 24.6229ZM164.989 27.4117C164.922 27.4117 164.81 27.4061 164.653 27.3949C164.497 27.3949 164.334 27.3893 164.166 27.3781C163.998 27.3669 163.841 27.3557 163.696 27.3445C163.55 27.3333 163.461 27.3221 163.427 27.3109V25.5805H163.545C163.567 25.5917 163.612 25.6029 163.679 25.6141C163.757 25.6253 163.841 25.6309 163.931 25.6309C164.032 25.6421 164.127 25.6477 164.217 25.6477C164.306 25.6589 164.379 25.6645 164.435 25.6645C164.793 25.6645 165.079 25.5861 165.292 25.4293C165.505 25.2837 165.656 25.0317 165.745 24.6733C165.745 24.6285 165.745 24.5501 165.745 24.4381C165.757 24.3261 165.762 24.1973 165.762 24.0517C165.762 23.9061 165.751 23.7549 165.729 23.5981C165.717 23.4413 165.689 23.3013 165.645 23.1781L162.553 15.3829H164.821L166.3 19.5493C166.389 19.8293 166.479 20.1317 166.569 20.4565C166.669 20.7813 166.753 21.0837 166.821 21.3637C166.899 21.6885 166.977 22.0133 167.056 22.3381H167.089C167.168 22.0021 167.252 21.6717 167.341 21.3469C167.42 21.0669 167.504 20.7701 167.593 20.4565C167.683 20.1317 167.773 19.8293 167.862 19.5493L169.29 15.3829H171.441L167.963 24.8581C167.773 25.3509 167.582 25.7597 167.392 26.0845C167.201 26.4205 166.989 26.6837 166.753 26.8741C166.518 27.0757 166.255 27.2157 165.964 27.2941C165.684 27.3725 165.359 27.4117 164.989 27.4117Z" fill="white"/>
</svg>
